<svg width="26" height="26" viewBox="0 0 26 26" fill="none" xmlns="http://www.w3.org/2000/svg">
<path d="M3.98125 0H8.04375C10.1562 0 11.8625 1.70625 11.8625 3.81875V7.9625C11.8625 10.075 10.1562 11.7812 8.04375 11.7812H3.81875C1.70625 11.7812 0 10.075 0 7.9625V3.9C0 1.7875 1.7875 0 3.98125 0ZM18.1187 0H22.1812C24.2937 0 26 1.70625 26 3.81875V7.9625C26 10.075 24.2937 11.7812 22.1812 11.7812H18.0375C15.925 11.7812 14.2188 10.075 14.2188 7.9625V3.9C14.2188 1.7875 15.925 0 18.1187 0ZM23.1562 2.84375C22.75 2.6 22.1812 2.68125 21.9375 3.16875L19.6625 6.90625L18.4438 4.7125C18.2 4.30625 17.6313 4.14375 17.225 4.3875C16.8188 4.63125 16.6562 5.2 16.9 5.60625L18.85 8.69375C18.9313 8.9375 19.2563 9.1 19.5 9.1C19.5812 9.1 19.9875 9.1 20.0688 9.1C20.3125 9.1 20.5562 8.9375 20.6375 8.69375L23.5625 4.0625C23.725 3.65625 23.5625 3.0875 23.1562 2.84375ZM18.1187 14.2188H22.1812C24.2937 14.2188 26 15.925 26 18.0375V22.1812C26 24.2937 24.2937 26 22.1812 26H18.0375C15.925 26 14.2188 24.2937 14.2188 22.1812V18.1187C14.2188 16.0063 15.925 14.2188 18.1187 14.2188ZM23.1562 17.0625C22.75 16.8188 22.1812 16.9 21.9375 17.3875L19.6625 21.125L18.4438 18.9312C18.2 18.525 17.6313 18.3625 17.225 18.6062C16.8188 18.85 16.6562 19.4187 16.9 19.825L18.85 22.9125C18.9313 23.1562 19.2563 23.3188 19.5 23.3188C19.5812 23.3188 19.9875 23.3188 20.0688 23.3188C20.3125 23.3188 20.5562 23.1562 20.6375 22.9125L23.5625 18.2812C23.725 17.875 23.5625 17.3062 23.1562 17.0625ZM3.98125 14.2188H8.04375C10.1562 14.2188 11.8625 15.925 11.8625 18.0375V22.1812C11.8625 24.2937 10.1562 26 8.04375 26H3.81875C1.70625 26 0 24.2937 0 22.1812V18.1187C0 15.925 1.7875 14.2188 3.98125 14.2188Z" fill="#A5B4C3"/>
</svg>
