<svg width="20" height="20" viewBox="0 0 20 20" fill="none" xmlns="http://www.w3.org/2000/svg">
<path d="M19.1729 3.3975C18.9385 3.1162 18.645 2.88996 18.3133 2.73485C17.9816 2.57973 17.6199 2.49955 17.2537 2.5H3.78036L3.74536 2.2075C3.67373 1.59951 3.38152 1.03894 2.9241 0.632065C2.46669 0.225186 1.87588 0.000284828 1.26369 0L1.07869 0C0.857681 0 0.645719 0.0877974 0.489439 0.244078C0.333159 0.400358 0.245361 0.61232 0.245361 0.833333C0.245361 1.05435 0.333159 1.26631 0.489439 1.42259C0.645719 1.57887 0.857681 1.66667 1.07869 1.66667H1.26369C1.46781 1.66669 1.66481 1.74163 1.81734 1.87726C1.96987 2.0129 2.06731 2.19979 2.09119 2.4025L3.23786 12.1525C3.3569 13.1665 3.84409 14.1015 4.60695 14.78C5.36981 15.4585 6.35524 15.8334 7.37619 15.8333H16.0787C16.2997 15.8333 16.5117 15.7455 16.6679 15.5893C16.8242 15.433 16.912 15.221 16.912 15C16.912 14.779 16.8242 14.567 16.6679 14.4107C16.5117 14.2545 16.2997 14.1667 16.0787 14.1667H7.37619C6.86041 14.1652 6.35769 14.0043 5.93697 13.7059C5.51625 13.4075 5.19812 12.9863 5.02619 12.5H14.9595C15.9364 12.5001 16.8823 12.1569 17.6319 11.5304C18.3815 10.9039 18.8871 10.0339 19.0604 9.0725L19.7145 5.44417C19.7798 5.08417 19.7652 4.71422 19.6715 4.36053C19.5779 4.00684 19.4077 3.67806 19.1729 3.3975Z" fill="white"/>
<path d="M6.07878 19.9998C6.99925 19.9998 7.74544 19.2536 7.74544 18.3332C7.74544 17.4127 6.99925 16.6665 6.07878 16.6665C5.1583 16.6665 4.41211 17.4127 4.41211 18.3332C4.41211 19.2536 5.1583 19.9998 6.07878 19.9998Z" fill="white"/>
<path d="M14.412 19.9998C15.3325 19.9998 16.0787 19.2536 16.0787 18.3332C16.0787 17.4127 15.3325 16.6665 14.412 16.6665C13.4916 16.6665 12.7454 17.4127 12.7454 18.3332C12.7454 19.2536 13.4916 19.9998 14.412 19.9998Z" fill="white"/>
</svg>
