<svg width="34" height="34" viewBox="0 0 34 34" fill="none" xmlns="http://www.w3.org/2000/svg">
<path d="M22.5329 17.9725V14.2225C22.5329 13.8542 22.6792 13.5009 22.9397 13.2404C23.2002 12.98 23.5534 12.8336 23.9218 12.8336H25.3106C25.679 12.8336 26.0323 12.6873 26.2927 12.4269C26.5532 12.1664 26.6995 11.8131 26.6995 11.4448V10.0559C26.6995 9.68755 26.8458 9.33429 27.1063 9.07382C27.3668 8.81336 27.72 8.66703 28.0884 8.66703H31.8175C32.0884 8.66571 32.3532 8.58644 32.5803 8.43867C32.8074 8.29089 32.9871 8.08088 33.098 7.83371C33.5671 6.80063 33.7476 5.65978 33.6203 4.53236C33.4616 3.35853 32.8787 2.28339 31.9816 1.50989C31.0845 0.736387 29.9353 0.318036 28.7509 0.333804C27.0797 0.33391 25.477 0.997865 24.2954 2.17961L13.3122 13.16C11.5418 12.7001 9.68047 12.7231 7.92198 13.2267C5.50265 13.9108 3.41239 15.4469 2.03692 17.5515C0.661455 19.6561 0.0935989 22.1872 0.438141 24.6776C0.782683 27.1681 2.01637 29.45 3.91156 31.1021C5.80674 32.7542 8.23552 33.6651 10.7497 33.6667C11.1134 33.6664 11.4769 33.6474 11.8386 33.6098C13.9082 33.3844 15.8635 32.5465 17.454 31.2031C19.0445 29.8598 20.1978 28.0723 20.7663 26.0696C21.2714 24.3117 21.294 22.4503 20.8315 20.6808L21.7343 19.778C22.2144 19.2954 22.4988 18.6523 22.5329 17.9725ZM7.96504 28.1112C7.553 28.1112 7.15021 27.989 6.80762 27.7601C6.46502 27.5312 6.198 27.2058 6.04032 26.8252C5.88263 26.4445 5.84138 26.0256 5.92176 25.6215C6.00215 25.2174 6.20056 24.8462 6.49192 24.5548C6.78328 24.2634 7.15448 24.065 7.55861 23.9846C7.96273 23.9043 8.38161 23.9455 8.76229 24.1032C9.14296 24.2609 9.46833 24.5279 9.69725 24.8705C9.92616 25.2131 10.0483 25.6159 10.0483 26.0279C10.0483 26.5804 9.82886 27.1103 9.43816 27.501C9.04746 27.8917 8.51757 28.1112 7.96504 28.1112Z" fill="#73879B"/>
</svg>
