<svg width="20" height="20" viewBox="0 0 20 20" fill="none" xmlns="http://www.w3.org/2000/svg">
<path d="M10.0029 -0.00238037C11.5135 -0.00150735 13.0042 0.341476 14.3633 1.00083C15.7224 1.66019 16.9145 2.61879 17.8501 3.8047C18.7858 4.99062 19.4407 6.37304 19.7657 7.84823C20.0907 9.32343 20.0774 10.8531 19.7268 12.3224C19.3762 13.7917 18.6973 15.1625 17.7412 16.332C16.785 17.5014 15.5764 18.4392 14.2061 19.0748C12.8357 19.7104 11.3392 20.0274 9.82888 20.002C8.31852 19.9766 6.83352 19.6094 5.48534 18.9281L5.33404 18.8468L0.776475 19.9846C0.688763 20.0067 0.59731 20.0095 0.508428 19.9927C0.419545 19.976 0.335348 19.9402 0.261649 19.8878C0.187949 19.8354 0.1265 19.7676 0.0815434 19.6891C0.0365866 19.6106 0.00919196 19.5233 0.00125027 19.4332V19.3307L0.0187556 19.2269L1.15658 14.6706L1.07781 14.5206C0.505626 13.3942 0.153407 12.1691 0.0400116 10.9108L0.00875249 10.4331L0 10.0005C0 7.34758 1.05387 4.8033 2.92978 2.9274C4.80569 1.05149 7.34996 -0.00238037 10.0029 -0.00238037ZM10.6281 11.2509H6.87699L6.76446 11.2609C6.62031 11.287 6.48991 11.3629 6.39601 11.4753C6.3021 11.5877 6.25066 11.7296 6.25066 11.8761C6.25066 12.0225 6.3021 12.1644 6.39601 12.2768C6.48991 12.3892 6.62031 12.4651 6.76446 12.4912L6.87699 12.5012H10.6281L10.7406 12.4912C10.8847 12.4651 11.0152 12.3892 11.1091 12.2768C11.203 12.1644 11.2544 12.0225 11.2544 11.8761C11.2544 11.7296 11.203 11.5877 11.1091 11.4753C11.0152 11.3629 10.8847 11.287 10.7406 11.2609L10.6281 11.2509ZM13.1288 7.49979H6.87699L6.76446 7.50979C6.62031 7.53589 6.48991 7.61178 6.39601 7.72421C6.3021 7.83664 6.25066 7.97848 6.25066 8.12497C6.25066 8.27146 6.3021 8.41329 6.39601 8.52573C6.48991 8.63816 6.62031 8.71405 6.76446 8.74015L6.87699 8.75015H13.1288L13.2413 8.74015C13.3855 8.71405 13.5159 8.63816 13.6098 8.52573C13.7037 8.41329 13.7551 8.27146 13.7551 8.12497C13.7551 7.97848 13.7037 7.83664 13.6098 7.72421C13.5159 7.61178 13.3855 7.53589 13.2413 7.50979L13.1288 7.49979Z" fill="#D7E1EB"/>
</svg>
