<svg width="20" height="20" viewBox="0 0 20 20" fill="none" xmlns="http://www.w3.org/2000/svg">
<path d="M9.99452 20C11.1 20 12.0044 19.1 12.0044 18H7.9846C7.9846 19.1 8.88906 20 9.99452 20ZM16.0243 8C16.0243 5.21 14.1048 2.86 11.502 2.2V1.5C11.502 0.67 10.8286 0 9.99452 0C9.1604 0 8.48708 0.67 8.48708 1.5V2.2C5.88423 2.86 3.96475 5.21 3.96475 8V15H2.95979C2.40706 15 1.95482 15.45 1.95482 16C1.95482 16.55 2.40706 17 2.95979 17H17.0293C17.582 17 18.0342 16.55 18.0342 16C18.0342 15.45 17.582 15 17.0293 15H16.0243V8ZM4.11549 1.15C3.71351 0.75 3.06028 0.76 2.66835 1.17C1.18312 2.74044 0.248807 4.74718 0.00519691 6.89C-0.0551008 7.48 0.417232 8 1.01016 8C1.51264 8 1.94477 7.63 2.00507 7.13C2.19602 5.36 2.97989 3.76 4.13559 2.52C4.50743 2.14 4.49738 1.53 4.11549 1.15ZM15.8836 1.16C15.5017 1.54 15.4917 2.15 15.8635 2.54C17.0598 3.80044 17.8081 5.41619 17.994 7.14C18.0443 7.64 18.4865 8.01 18.9889 8.01C19.1307 8.01086 19.2711 7.98184 19.4009 7.92485C19.5306 7.86786 19.6468 7.7842 19.7417 7.67935C19.8366 7.57451 19.9082 7.45086 19.9516 7.31654C19.9951 7.18222 20.0095 7.04026 19.9939 6.9C19.7527 4.7 18.7879 2.72 17.3408 1.19C16.9388 0.77 16.2856 0.76 15.8836 1.16Z" fill="#D7E1EB"/>
</svg>
