<svg width="22" height="24" viewBox="0 0 22 24" fill="none" xmlns="http://www.w3.org/2000/svg">
<path d="M2.01547 23.7602C2.55158 23.9957 3.1443 24.0596 3.7163 23.9437C4.2883 23.8278 4.81303 23.5374 5.22204 23.1105L10.9999 17.2052L16.7778 23.1105C17.0472 23.3914 17.3682 23.6145 17.7221 23.7671C18.076 23.9197 18.4558 23.9986 18.8396 23.9993C19.2341 23.9982 19.6245 23.9169 19.9883 23.7602C20.5288 23.5354 20.9908 23.1484 21.314 22.6497C21.6371 22.1509 21.8064 21.5636 21.7998 20.9645V5.04463C21.7982 3.7072 21.2805 2.42501 20.3602 1.47931C19.4399 0.533603 18.1922 0.00160203 16.8908 0L5.10913 0C3.80766 0.00160203 2.55994 0.533603 1.63966 1.47931C0.719379 2.42501 0.201681 3.7072 0.200122 5.04463V20.9645C0.193786 21.5641 0.363667 22.1517 0.687551 22.6505C1.01143 23.1493 1.47425 23.5361 2.01547 23.7602Z" fill="#A5B4C3"/>
</svg>
