<svg width="14" height="14" viewBox="0 0 14 14" fill="none" xmlns="http://www.w3.org/2000/svg">
<path fill-rule="evenodd" clip-rule="evenodd" d="M10.1946 9.40886L13.5106 12.7242C13.6118 12.8291 13.6678 12.9694 13.6666 13.1152C13.6653 13.2609 13.6068 13.4003 13.5038 13.5034C13.4007 13.6064 13.2613 13.6649 13.1156 13.6661C12.9699 13.6674 12.8295 13.6114 12.7247 13.5101L9.40875 10.1948C8.30471 11.0972 6.89608 11.5408 5.47418 11.4337C4.05229 11.3267 2.72591 10.6773 1.76936 9.61986C0.812823 8.56238 0.299297 7.17772 0.334996 5.75225C0.370694 4.32678 0.952886 2.96956 1.96116 1.96128C2.96944 0.953008 4.32666 0.370816 5.75213 0.335118C7.1776 0.299419 8.56226 0.812945 9.61974 1.76949C10.6772 2.72603 11.3266 4.05241 11.4336 5.4743C11.5406 6.8962 11.0971 8.30483 10.1946 9.40886ZM5.83952 10.3044C8.27664 10.3044 10.2523 8.32876 10.2523 5.89164C10.2523 3.45452 8.27664 1.47885 5.83952 1.47885C3.4024 1.47885 1.42672 3.45452 1.42672 5.89164C1.42672 8.32876 3.4024 10.3044 5.83952 10.3044Z" fill="#A5B4C3"/>
</svg>
