<svg width="307" height="94" viewBox="0 0 307 94" fill="none" xmlns="http://www.w3.org/2000/svg">
<path d="M265.446 41.1107C288.523 38.8919 288.858 24.9398 306.422 27.5L306.422 94H0.502034L0.502022 46C15.412 46 17.2076 37.5449 24.2078 35.6674C31.2079 33.79 38.4451 25.5608 46.637 26.2435C54.8288 26.9262 59.6564 44.183 76.92 45.8897C94.1837 47.5965 106.746 46.5725 120.414 38.2092C134.082 29.8459 136.907 18.5264 151.51 16.8196C166.112 15.1128 174.764 1.43144 192.293 0.0660082C209.823 -1.29943 214.676 18.9224 225.239 23.3601C235.803 27.7977 242.37 43.3296 265.446 41.1107Z" fill="url(#paint0_linear)"/>
<defs>
<linearGradient id="paint0_linear" x1="-0.340137" y1="68.6904" x2="305.4" y2="73.1936" gradientUnits="userSpaceOnUse">
<stop stop-color="#DCD7FF"/>
<stop offset="1" stop-color="#FAD2F5"/>
</linearGradient>
</defs>
</svg>
