<svg width="12" height="12" viewBox="0 0 12 12" fill="none" xmlns="http://www.w3.org/2000/svg">
<path d="M0.807991 6.28878L2.5395 7.55337L1.88192 9.58984C1.77565 9.90568 1.7743 10.2474 1.87808 10.5641C1.98185 10.8808 2.18519 11.1554 2.45779 11.3471C2.72571 11.545 3.05039 11.651 3.38344 11.6493C3.71649 11.6476 4.04009 11.5384 4.30603 11.3379L5.99911 10.0918L7.69268 11.3364C7.96012 11.5331 8.28304 11.64 8.61503 11.6416C8.94702 11.6432 9.27098 11.5395 9.54032 11.3454C9.80966 11.1513 10.0105 10.8768 10.114 10.5614C10.2175 10.2459 10.2183 9.90577 10.1163 9.58984L9.45872 7.55337L11.1902 6.28878C11.4573 6.09351 11.6559 5.81882 11.7575 5.50396C11.8592 5.1891 11.8587 4.85017 11.7562 4.53558C11.6537 4.22099 11.4544 3.94684 11.1868 3.75227C10.9192 3.55771 10.597 3.4527 10.2661 3.45223H8.13917L7.49375 1.44056C7.39225 1.12391 7.19281 0.847676 6.92419 0.65169C6.65556 0.455705 6.33163 0.350098 5.99911 0.350098C5.66659 0.350098 5.34266 0.455705 5.07403 0.65169C4.80541 0.847676 4.60596 1.12391 4.50447 1.44056L3.85904 3.45223H1.73406C1.40319 3.4527 1.08094 3.55771 0.813332 3.75227C0.54572 3.94684 0.346438 4.22099 0.243949 4.53558C0.141459 4.85017 0.141006 5.1891 0.242652 5.50396C0.344299 5.81882 0.542847 6.09351 0.809937 6.28878H0.807991Z" fill="#FAE18C"/>
</svg>
