<svg width="34" height="34" viewBox="0 0 34 34" fill="none" xmlns="http://www.w3.org/2000/svg">
<path d="M26.7221 5.88893H25.1944C24.872 4.32145 24.0191 2.91302 22.7794 1.90104C21.5398 0.889055 19.9891 0.335394 18.3888 0.333374L15.611 0.333374C14.0107 0.335394 12.4601 0.889055 11.2204 1.90104C9.98073 2.91302 9.12783 4.32145 8.80547 5.88893H7.2777C5.43659 5.89113 3.67153 6.62349 2.36967 7.92534C1.06781 9.2272 0.335457 10.9923 0.333252 12.8334L0.333252 17H33.6666V12.8334C33.6644 10.9923 32.932 9.2272 31.6302 7.92534C30.3283 6.62349 28.5632 5.89113 26.7221 5.88893ZM11.6999 5.88893C11.9861 5.07933 12.5155 4.37794 13.2156 3.88072C13.9157 3.38349 14.7523 3.11471 15.611 3.11115H18.3888C19.2475 3.11471 20.0841 3.38349 20.7842 3.88072C21.4843 4.37794 22.0137 5.07933 22.2999 5.88893H11.6999Z" fill="#73879B"/>
<path d="M18.3888 21.1667C18.3888 21.5351 18.2425 21.8883 17.982 22.1488C17.7215 22.4093 17.3683 22.5556 16.9999 22.5556C16.6316 22.5556 16.2783 22.4093 16.0178 22.1488C15.7574 21.8883 15.611 21.5351 15.611 21.1667V19.7778H0.333252V26.7223C0.335457 28.5634 1.06781 30.3284 2.36967 31.6303C3.67153 32.9322 5.43659 33.6645 7.2777 33.6667H26.7221C28.5632 33.6645 30.3283 32.9322 31.6302 31.6303C32.932 30.3284 33.6644 28.5634 33.6666 26.7223V19.7778H18.3888V21.1667Z" fill="#73879B"/>
</svg>
