<svg  width="12" height="13" viewBox="0 0 12 13" fill="none" xmlns="http://www.w3.org/2000/svg">
<path d="M8.26179 8.04195L8.42133 8.20548C8.57553 8.36409 8.78115 8.45146 9.00006 8.45146C9.21898 8.45146 9.42459 8.36409 9.57854 8.20577L11.7601 5.96968C11.9148 5.81162 12 5.60087 12 5.37647C12 5.15207 11.9148 4.94132 11.7603 4.78353L11.6005 4.61973C11.494 4.51055 11.3214 4.51055 11.2149 4.61973L8.26179 7.64669C8.15525 7.75585 8.15525 7.93274 8.26179 8.04195Z" fill="white"/>
<path d="M4.76302 4.45607C4.81628 4.51068 4.88608 4.53797 4.95586 4.53797C5.02563 4.53797 5.09541 4.51068 5.14869 4.45607L8.10178 1.42911C8.20833 1.31993 8.20833 1.14301 8.10178 1.03382L7.94224 0.870293C7.63381 0.553077 7.0929 0.553339 6.78504 0.870031L4.60348 3.1061C4.44874 3.26416 4.36353 3.47491 4.36353 3.69931C4.36353 3.9237 4.44874 4.13446 4.60322 4.29225L4.76302 4.45607Z" fill="white"/>
<path d="M7.49032 7.25158C7.54358 7.30618 7.61338 7.33347 7.68315 7.33347C7.75293 7.33347 7.8227 7.30618 7.87598 7.25158L10.8291 4.22462C10.9356 4.11543 10.9356 3.93852 10.8291 3.82933L8.87313 1.82444C8.76659 1.71526 8.59401 1.71526 8.48749 1.82444L5.5344 4.8514C5.42786 4.96059 5.42786 5.1375 5.5344 5.24669L5.92654 5.64863C3.8146 7.52443 1.10019 10.2155 0.319599 11.0156C0.113445 11.2269 0 11.5076 0 11.8062C0 12.4229 0.489242 12.9244 1.09091 12.9244C1.38228 12.9244 1.65606 12.8081 1.86221 12.5968C2.80186 11.6336 5.36335 8.91466 7.10473 6.85632L7.49032 7.25158Z" fill="white"/>
</svg>
