<svg width="24" height="23" viewBox="0 0 24 23" fill="none" xmlns="http://www.w3.org/2000/svg">
<path d="M2.1 0.5C1.86131 0.5 1.63239 0.594821 1.4636 0.763604C1.29482 0.932386 1.2 1.16131 1.2 1.4C1.2 1.63869 1.29482 1.86761 1.4636 2.0364C1.63239 2.20518 1.86131 2.3 2.1 2.3H3.3504L0.066001 10.3604C0.0222467 10.4683 -0.000167448 10.5836 9.41784e-07 10.7C9.33566e-07 11.2515 0.108637 11.7977 0.319707 12.3073C0.530777 12.8168 0.840146 13.2798 1.23015 13.6698C1.62016 14.0599 2.08316 14.3692 2.59273 14.5803C3.1023 14.7914 3.64845 14.9 4.2 14.9C4.75155 14.9 5.2977 14.7914 5.80727 14.5803C6.31684 14.3692 6.77984 14.0599 7.16985 13.6698C7.55985 13.2798 7.86923 12.8168 8.08029 12.3073C8.29136 11.7977 8.4 11.2515 8.4 10.7C8.40017 10.5836 8.37775 10.4683 8.334 10.3604L5.0496 2.3H11.1V16.7H6.3036C5.58752 16.7 4.90076 16.9845 4.39441 17.4908C3.88806 17.9972 3.6036 18.6839 3.6036 19.4C3.6036 20.1161 3.88806 20.8028 4.39441 21.3092C4.90076 21.8155 5.58752 22.1 6.3036 22.1H17.7C18.4161 22.1 19.1028 21.8155 19.6092 21.3092C20.1155 20.8028 20.4 20.1161 20.4 19.4C20.4 18.6839 20.1155 17.9972 19.6092 17.4908C19.1028 16.9845 18.4161 16.7 17.7 16.7H12.9V2.3H18.9504L15.666 10.3604C15.6222 10.4683 15.5998 10.5836 15.6 10.7C15.6 11.8139 16.0425 12.8822 16.8302 13.6698C17.6178 14.4575 18.6861 14.9 19.8 14.9C20.9139 14.9 21.9822 14.4575 22.7698 13.6698C23.5575 12.8822 24 11.8139 24 10.7C24.0002 10.5836 23.9778 10.4683 23.934 10.3604L20.6496 2.3H21.9C22.1387 2.3 22.3676 2.20518 22.5364 2.0364C22.7052 1.86761 22.8 1.63869 22.8 1.4C22.8 1.16131 22.7052 0.932386 22.5364 0.763604C22.3676 0.594821 22.1387 0.5 21.9 0.5H2.1ZM4.2 4.9856L6.162 9.8H2.238L4.2 4.9856ZM17.838 9.8L19.8 4.9856L21.762 9.8H17.838Z" fill="#A5B4C3"/>
</svg>
