<svg width="86" height="36" viewBox="0 0 86 36" fill="none" xmlns="http://www.w3.org/2000/svg">
<g clip-path="url(#clip0)">
<path fill-rule="evenodd" clip-rule="evenodd" d="M25.9058 14.7351C26.602 14.0307 26.602 12.8232 25.9058 12.1188L31.4751 17.7538C32.1713 18.4582 32.1713 19.6657 31.4751 20.3701L17.3529 34.659C16.6568 35.3634 15.4633 35.3634 14.7672 34.659L4.92139 24.6971L10.4907 19.062L16.0601 24.6971C19.3419 21.3764 22.6239 18.0558 25.9058 14.7351Z" fill="#8778F5"/>
<path fill-rule="evenodd" clip-rule="evenodd" d="M0.644682 17.7543L14.7668 3.46535C15.463 2.76098 16.6564 2.76098 17.3526 3.46535L21.629 7.79228L16.0597 13.4273L21.629 19.0624L16.0597 24.6975L10.4904 19.0624L4.92112 24.6975L0.644682 20.3706C-0.0514826 19.6662 -0.0514826 18.4586 0.644682 17.7543Z" fill="#F078DC"/>
<path fill-rule="evenodd" clip-rule="evenodd" d="M21.6289 7.79199L25.9053 12.1189C26.6015 12.8233 26.6015 14.0308 25.9053 14.7352L21.6289 19.0622L16.0596 13.4271L21.6289 7.79199Z" fill="#73C8EB"/>
<path d="M46.1109 18.0001H44.0345V2.98982H38.7559V1.11669H51.4145V2.98982H46.1109V18.0001ZM62.8966 18.3039C60.4616 18.3039 58.4185 17.4939 56.7674 15.8739C55.133 14.237 54.3157 12.136 54.3157 9.57107C54.3157 7.00607 55.133 4.91357 56.7674 3.29357C58.4185 1.65669 60.4616 0.838257 62.8966 0.838257C65.5651 0.838257 67.6749 1.95201 69.226 4.17951L67.4748 5.16669C66.9911 4.44107 66.3407 3.85044 65.5234 3.39482C64.7063 2.93919 63.8307 2.71138 62.8966 2.71138C61.0621 2.71138 59.5277 3.36107 58.2935 4.66044C57.076 5.94295 56.4672 7.57982 56.4672 9.57107C56.4672 11.5624 57.076 13.2077 58.2935 14.507C59.5277 15.7895 61.0621 16.4308 62.8966 16.4308C63.8307 16.4308 64.7063 16.2113 65.5234 15.7726C66.3407 15.317 66.9911 14.7179 67.4748 13.9754L69.251 14.9626C67.6333 17.1901 65.5151 18.3039 62.8966 18.3039ZM75.4747 18.0001H73.3983V1.11669H80.1029C81.7207 1.11669 82.9966 1.60607 83.9305 2.58482C84.8646 3.56357 85.3315 4.77013 85.3315 6.20451C85.3315 7.63889 84.8562 8.84541 83.9055 9.82419C82.9716 10.803 81.704 11.2923 80.1029 11.2923H75.4747V18.0001ZM79.8527 9.41919C80.8368 9.41919 81.6374 9.12385 82.2544 8.53326C82.8715 7.92576 83.18 7.1495 83.18 6.20451C83.18 5.25951 82.8715 4.49169 82.2544 3.90107C81.6374 3.29357 80.8368 2.98982 79.8527 2.98982H75.4747V9.41919H79.8527Z" fill="#F3F6FB"/>
<path d="M47.7338 35.2124H46.3288V29.1982L43.8672 35.2124H43.2668L40.8171 29.1982V35.2124H39.4121V27.1084H41.3935L43.567 32.4422L45.7525 27.1084H47.7338V35.2124ZM56.6434 35.2124H55.0463L54.4579 33.6572H50.7834L50.195 35.2124H48.5979L51.7441 27.1084H53.4973L56.6434 35.2124ZM54.0617 32.4058L52.6207 28.5421L51.1797 32.4058H54.0617ZM63.7146 35.2124H62.0935L60.3162 32.1871H58.9233V35.2124H57.5183V27.1084H61.0367C61.8213 27.1084 62.4537 27.3433 62.934 27.8131C63.4144 28.2829 63.6545 28.8944 63.6545 29.6477C63.6545 30.3281 63.4704 30.8749 63.1021 31.288C62.7339 31.693 62.2856 31.94 61.7572 32.0291L63.7146 35.2124ZM60.8446 30.9356C61.2449 30.9356 61.5731 30.8182 61.8293 30.5833C62.0854 30.3484 62.2135 30.0365 62.2135 29.6477C62.2135 29.2589 62.0854 28.9471 61.8293 28.7122C61.5731 28.4773 61.2449 28.3598 60.8446 28.3598H58.9233V30.9356H60.8446ZM71.5791 35.2124H69.8499L67.16 31.7983L66.4636 32.6245V35.2124H65.0586V27.1084H66.4636V30.9721L69.5977 27.1084H71.3389L68.0847 30.9356L71.5791 35.2124ZM78.0046 35.2124H72.5168V27.1084H78.0046V28.3598H73.9218V30.4618H77.9205V31.7132H73.9218V33.961H78.0046V35.2124ZM82.7616 35.2124H81.3567V28.3598H78.931V27.1084H85.1873V28.3598H82.7616V35.2124Z" fill="#F3F6FB"/>
</g>
<defs>
<clipPath id="clip0">
<rect width="85.5" height="36" fill="white"/>
</clipPath>
</defs>
</svg>
