<svg width="16" height="16" viewBox="0 0 16 16" fill="none" xmlns="http://www.w3.org/2000/svg">
<path d="M8 11C9.6545 11 11 9.59254 11 7.86185V3.15463C11 1.41531 9.66125 0 8.01575 0C7.96296 0.000331784 7.91038 0.00691144 7.859 0.0196134C7.08894 0.0586679 6.36269 0.405884 5.83053 0.989421C5.29837 1.57296 5.00102 2.34816 5 3.15463V7.86185C5 9.59254 6.3455 11 8 11Z" fill="#A5B4C3"/>
<path d="M7.25 14.3448V16H8.75V14.3448C11.7043 13.9488 14 11.2584 14 8H12.5C12.5 10.6472 10.4818 12.8 8 12.8C5.51825 12.8 3.5 10.6472 3.5 8H2C2 11.2576 4.29575 13.9488 7.25 14.3448Z" fill="#A5B4C3"/>
</svg>
