<svg width="24" height="24" viewBox="0 0 24 24" fill="none" xmlns="http://www.w3.org/2000/svg">
<g clip-path="url(#clip0)">
<path d="M22.713 4.077C22.4317 3.73944 22.0796 3.46795 21.6815 3.28182C21.2835 3.09568 20.8494 2.99946 20.41 3H4.242L4.2 2.649C4.11405 1.91942 3.76338 1.24673 3.21449 0.758478C2.6656 0.270223 1.95663 0.000341793 1.222 0L1 0C0.734784 0 0.48043 0.105357 0.292893 0.292893C0.105357 0.48043 0 0.734784 0 1C0 1.26522 0.105357 1.51957 0.292893 1.70711C0.48043 1.89464 0.734784 2 1 2H1.222C1.46693 2.00003 1.70334 2.08996 1.88637 2.25272C2.06941 2.41547 2.18634 2.63975 2.215 2.883L3.591 14.583C3.73385 15.7998 4.31848 16.9218 5.23391 17.736C6.14934 18.5502 7.33185 19 8.557 19H19C19.2652 19 19.5196 18.8946 19.7071 18.7071C19.8946 18.5196 20 18.2652 20 18C20 17.7348 19.8946 17.4804 19.7071 17.2929C19.5196 17.1054 19.2652 17 19 17H8.557C7.93806 16.9983 7.3348 16.8051 6.82994 16.4471C6.32507 16.089 5.94331 15.5835 5.737 15H17.657C18.8293 15.0001 19.9643 14.5882 20.8638 13.8364C21.7633 13.0846 22.37 12.0407 22.578 10.887L23.363 6.533C23.4414 6.10101 23.4237 5.65707 23.3114 5.23264C23.1991 4.80821 22.9948 4.41368 22.713 4.077Z" fill="#A5B4C3"/>
<path d="M7 24C8.10457 24 9 23.1046 9 22C9 20.8954 8.10457 20 7 20C5.89543 20 5 20.8954 5 22C5 23.1046 5.89543 24 7 24Z" fill="#A5B4C3"/>
<path d="M17 24C18.1046 24 19 23.1046 19 22C19 20.8954 18.1046 20 17 20C15.8954 20 15 20.8954 15 22C15 23.1046 15.8954 24 17 24Z" fill="#A5B4C3"/>
<rect x="9" width="15" height="13" rx="6.5" fill="#F0507D"/>
<path d="M13.3908 9.42C13.6174 9.42 13.8274 9.38667 14.0208 9.32C14.2141 9.25333 14.3808 9.15667 14.5208 9.03C14.6608 8.89667 14.7708 8.74 14.8508 8.56C14.9308 8.38 14.9708 8.18333 14.9708 7.97C14.9708 7.50333 14.8308 7.15667 14.5508 6.93C14.2774 6.70333 13.8974 6.59 13.4108 6.59H12.6708V6.3L14.1108 4.08L14.5708 3.64L13.9208 3.74H11.9408V3H15.5108V3.29L13.9208 5.68L13.5708 5.97V5.99L13.9108 5.92C14.1774 5.92667 14.4241 5.97667 14.6508 6.07C14.8774 6.15667 15.0741 6.28667 15.2408 6.46C15.4074 6.62667 15.5374 6.83 15.6308 7.07C15.7241 7.30333 15.7708 7.57 15.7708 7.87C15.7708 8.23 15.7074 8.55 15.5808 8.83C15.4541 9.11 15.2808 9.34667 15.0608 9.54C14.8474 9.72667 14.5941 9.87 14.3008 9.97C14.0074 10.07 13.6974 10.12 13.3708 10.12C13.0708 10.12 12.8008 10.0967 12.5608 10.05C12.3208 10.0033 12.1108 9.94333 11.9308 9.87L12.1408 9.16C12.2941 9.23333 12.4741 9.29667 12.6808 9.35C12.8941 9.39667 13.1308 9.42 13.3908 9.42ZM21.74 7.85H20.56V10H19.78V7.85H16.7V7.52L20.02 2.89H20.56V7.15H21.74V7.85ZM19.78 4.97L19.88 4.15H19.85L19.5 4.83L18.09 6.74L17.61 7.23L18.31 7.15H19.78V4.97Z" fill="white"/>
</g>
<defs>
<clipPath id="clip0">
<rect width="24" height="24" fill="white"/>
</clipPath>
</defs>
</svg>
