<svg width="20" height="20" viewBox="0 0 20 20" fill="none" xmlns="http://www.w3.org/2000/svg">
<path d="M14 4.28734H16V19.8077H4V4.28734H6V3.17874C6 2.59071 6.21071 2.02675 6.58579 1.61095C6.96086 1.19514 7.46957 0.961548 8 0.961548H12C12.5304 0.961548 13.0391 1.19514 13.4142 1.61095C13.7893 2.02675 14 2.59071 14 3.17874V4.28734ZM17 4.28734H18C18.5304 4.28734 19.0391 4.52094 19.4142 4.93674C19.7893 5.35254 20 5.9165 20 6.50453V17.5905C20 18.1785 19.7893 18.7425 19.4142 19.1583C19.0391 19.5741 18.5304 19.8077 18 19.8077H17V4.28734ZM3 4.28734V19.8077H2C1.46957 19.8077 0.960859 19.5741 0.585786 19.1583C0.210714 18.7425 0 18.1785 0 17.5905V6.50453C0 5.28508 0.9 4.28734 2 4.28734H3ZM8 3.17874V4.28734H12V3.17874H8Z" fill="#D7E1EB"/>
</svg>
