<svg width="46" height="60" viewBox="0 0 46 60" fill="none" xmlns="http://www.w3.org/2000/svg">
<path d="M23 30C31.2843 30 38 23.2843 38 15C38 6.71573 31.2843 0 23 0C14.7157 0 8 6.71573 8 15C8 23.2843 14.7157 30 23 30Z" fill="#A5B4C3"/>
<path d="M23 35.0006C17.0347 35.0072 11.3155 37.3799 7.09741 41.598C2.87927 45.8161 0.506617 51.5353 0.5 57.5006C0.5 58.1637 0.763392 58.7995 1.23223 59.2684C1.70107 59.7372 2.33696 60.0006 3 60.0006H43C43.663 60.0006 44.2989 59.7372 44.7678 59.2684C45.2366 58.7995 45.5 58.1637 45.5 57.5006C45.4934 51.5353 43.1207 45.8161 38.9026 41.598C34.6845 37.3799 28.9653 35.0072 23 35.0006Z" fill="#A5B4C3"/>
</svg>
