<svg width="36" height="36" viewBox="0 0 36 36" fill="none" xmlns="http://www.w3.org/2000/svg">
<path d="M12.8075 2.99994V6.46148H8.19214V29.5384H12.8075V32.9999H15.1152V29.5384H17.4229V32.9999H19.7306V29.5384H21.4614C24.9541 29.5384 27.8075 26.6849 27.8075 23.1922C27.8075 20.7899 26.4691 18.6807 24.4902 17.603C25.4612 16.7506 26.1496 15.6226 26.4638 14.3692C26.778 13.1159 26.703 11.7966 26.2489 10.5869C25.7947 9.37721 24.983 8.33451 23.9216 7.59755C22.8603 6.86058 21.5996 6.46432 20.3075 6.46148H19.7306V2.99994H17.4229V6.46148H15.1152V2.99994H12.8075ZM10.4998 8.76917H20.3075C22.5518 8.76917 24.346 10.5634 24.346 12.8076C24.346 15.0519 22.5518 16.8461 20.3075 16.8461H10.4998V8.76917ZM10.4998 19.1538H21.4614C23.7056 19.1538 25.4998 20.948 25.4998 23.1922C25.4998 25.4365 23.7056 27.2307 21.4614 27.2307H10.4998V19.1538Z" fill="#3CC8B4"/>
</svg>
